# xmcd CD database file
#
# Track frame offsets:
#	150
#	42615
#	72277
#	104717
#	150200
#	196487
#	228472
#	261772
#
# Disc length: 3907 seconds
#
# Revision: 0
# Processed by: cddbd v1.5.1PL0 Copyright (c) Steve Scherf et al.
# Submitted via: CDex 1.51
#
DISCID=6d0f4108
DTITLE=Omnibus - Bluenote Vol.3
DYEAR=1900
DGENRE=Jazz
TTITLE0=Cool struttin'/Sonny Clark
TTITLE1=Softly as in a morning sunrise/Sonny Clark
TTITLE2=Open sesame/Freddie Hubbard
TTITLE3=Luana/Freddie Hubbard
TTITLE4=The sidewinder/Lee Morgan
TTITLE5=Candy/Lee Morgan
TTITLE6=Scrapple from the apple/Dexter Gordon
TTITLE7=Stairway to the stars/Dexter Gordon
EXTD=
EXTT0=
EXTT1=
EXTT2=
EXTT3=
EXTT4=
EXTT5=
EXTT6=
EXTT7=
PLAYORDER=
